<?xml version="1.0" encoding="UTF-8"?>
<svg id="Layer_1" data-name="Layer 1" xmlns="http://www.w3.org/2000/svg" viewBox="0 0 300.6 74.21">
  <defs>
    <style>
      .cls-1 {
        fill-rule: evenodd;
      }

      .cls-1, .cls-2 {
        fill: #fff;
        stroke-width: 0px;
      }
    </style>
  </defs>
  <g>
    <path class="cls-2" d="M71.39,68.83c-1.97-2.83-2.95-7.13-2.95-12.88v-24.02c0-5.15,1.15-9.04,3.44-11.68,2.29-2.64,5.71-3.96,10.25-3.96,3.68,0,6.53.74,8.57,2.21,2.03,1.47,3.44,3.61,4.22,6.43.78,2.81,1.17,6.43,1.17,10.84h-10.9v-5c0-1.34-.18-2.38-.55-3.12-.37-.74-1.03-1.1-1.98-1.1-2.12,0-3.18,1.39-3.18,4.15v27c0,1.69.22,2.96.65,3.83.43.87,1.19,1.3,2.27,1.3s1.84-.43,2.27-1.3c.43-.87.65-2.14.65-3.83v-7.98h-2.99v-9.61h13.63v32.45h-4.48l-1.88-4.67c-1.99,3.46-5.06,5.19-9.22,5.19s-7.02-1.42-8.99-4.25Z"/>
    <path class="cls-2" d="M100.37,72.56V16.81h22.33v10.77h-10.97v10.84h10.51v10.51h-10.51v12.79h11.68v10.84h-23.04Z"/>
    <path class="cls-2" d="M130.16,68.96c-2.34-2.75-3.5-6.61-3.5-11.59v-26.55c0-4.8,1.17-8.43,3.5-10.87,2.34-2.44,5.75-3.67,10.26-3.67s7.92,1.22,10.25,3.67c2.34,2.44,3.5,6.07,3.5,10.87v26.55c0,5.02-1.17,8.89-3.5,11.62-2.34,2.73-5.75,4.09-10.25,4.09s-7.92-1.37-10.26-4.12ZM142.43,61.53c.35-.87.52-2.08.52-3.63v-27.26c0-1.21-.16-2.2-.49-2.95-.32-.76-.98-1.14-1.98-1.14-1.86,0-2.79,1.41-2.79,4.22v27.2c0,1.6.2,2.81.58,3.63.39.82,1.1,1.23,2.14,1.23s1.67-.43,2.01-1.3Z"/>
    <path class="cls-2" d="M163.46,72.56V27.52h-6.62v-10.71h24.4v10.71h-6.62v45.04h-11.16Z"/>
    <path class="cls-2" d="M184.36,16.81h17.13c2.73,0,4.84.62,6.33,1.85,1.49,1.23,2.5,2.96,3.02,5.19.52,2.23.78,5.07.78,8.54,0,3.16-.41,5.62-1.23,7.4-.82,1.77-2.25,3.01-4.28,3.7,1.69.35,2.91,1.19,3.67,2.53.76,1.34,1.14,3.16,1.14,5.45l-.13,21.09h-10.9v-21.81c0-1.56-.3-2.55-.91-2.99-.61-.43-1.71-.65-3.31-.65v25.44h-11.29V16.81ZM198.38,37.45c1.56,0,2.34-1.69,2.34-5.06,0-1.47-.07-2.57-.2-3.31-.13-.74-.37-1.24-.71-1.53-.35-.28-.84-.42-1.49-.42h-2.6v10.32h2.66Z"/>
    <path class="cls-2" d="M213.82,72.56l5.39-55.75h18.89l5.32,55.75h-10.58l-.78-9.02h-6.75l-.65,9.02h-10.84ZM226.16,54.65h5.06l-2.47-28.36h-.52l-2.08,28.36Z"/>
    <path class="cls-2" d="M250.01,69.25c-2.45-2.55-3.67-6.06-3.67-10.51v-25.7c0-5.54,1.1-9.71,3.31-12.53,2.21-2.81,5.67-4.22,10.38-4.22,4.11,0,7.42,1.13,9.93,3.38,2.51,2.25,3.76,5.5,3.76,9.74v9.61h-11.1v-8.24c0-1.6-.2-2.7-.58-3.31-.39-.61-1.06-.91-2.01-.91s-1.68.35-2.04,1.04c-.37.69-.55,1.71-.55,3.05v27.97c0,1.47.22,2.54.65,3.21.43.67,1.08,1.01,1.95,1.01,1.73,0,2.6-1.41,2.6-4.22v-10.06h11.23v10.51c0,9.35-4.7,14.02-14.08,14.02-4.07,0-7.32-1.28-9.77-3.83Z"/>
    <path class="cls-2" d="M277.56,72.56V16.81h22.33v10.77h-10.97v10.84h10.51v10.51h-10.51v12.79h11.68v10.84h-23.04Z"/>
  </g>
  <g id="Page-1">
    <g id="Icon-Set-Filled">
      <path id="location" class="cls-1" d="M27.83,20.87c-3.84,0-6.96,3.11-6.96,6.96s3.11,6.96,6.96,6.96,6.96-3.11,6.96-6.96-3.11-6.96-6.96-6.96h0ZM27.83,39.43c-6.4,0-11.6-5.19-11.6-11.6s5.19-11.6,11.6-11.6,11.6,5.19,11.6,11.6-5.19,11.6-11.6,11.6h0ZM27.83,0C12.46,0,0,12.46,0,27.83c0,11.64,23.2,46.41,27.83,46.38,4.55.03,27.83-34.9,27.83-46.38C55.66,12.46,43.2,0,27.83,0h0Z"/>
    </g>
  </g>
</svg>